<svg width="80.000000" height="80.000000" viewBox="0 0 80 80" fill="none" xmlns="http://www.w3.org/2000/svg" xmlns:xlink="http://www.w3.org/1999/xlink">
	<desc>
			Created with Pixso.
	</desc>
	<defs>
		<clipPath id="clip14_55">
			<rect id="icon 3" width="80.000000" height="80.000000" fill="white" fill-opacity="0"/>
		</clipPath>
	</defs>
	<rect id="icon 3" width="80.000000" height="80.000000" fill="#FFFFFF" fill-opacity="0"/>
	<g clip-path="url(#clip14_55)">
		<path id="Vector" d="M77.49 41.61C77.51 41.09 77.57 40.58 77.57 40.04C77.57 39.57 77.52 39.12 77.5 38.65C77.69 37.75 78.14 36.82 78.58 35.97C79.01 35.01 79.46 34.16 79.55 33.67C79.95 32.07 79.02 31.11 77.99 30.48C77.26 30.03 76.49 29.73 76.01 29.4C75.73 28.48 75.41 27.58 75.07 26.69C74.97 25.74 75.06 24.69 75.15 23.73C75.27 22.67 75.43 21.7 75.38 21.21C74.93 18.39 71.96 18.68 70.57 18.33C70.01 17.56 69.44 16.79 68.83 16.06C67.91 14.33 67.83 11.63 67.34 10.83C66.08 8.23 63.29 9.56 61.88 9.65C61.11 9.09 60.3 8.57 59.48 8.08C58.11 6.63 57.07 4.27 56.39 3.57C55.26 2.37 53.91 2.68 52.85 3.14C52.08 3.48 51.41 3.97 50.86 4.22C49.9 3.93 48.92 3.67 47.93 3.46C46.2 2.59 44.52 0.65 43.66 0.28C42.2 -0.38 41.04 0.21 40.19 1C39.57 1.62 39.09 2.31 38.66 2.72C37.67 2.76 36.68 2.82 35.71 2.93C33.77 2.71 31.51 1.34 30.57 1.32C28.95 1.12 28.04 2.02 27.52 3.14C27.13 3.91 26.9 4.72 26.61 5.23C25.7 5.59 24.82 5.98 23.96 6.4C22 6.76 19.46 6.34 18.5 6.53C16.88 6.82 16.41 8.12 16.22 9.26C16.07 10.09 16.12 10.94 16.03 11.53C15.27 12.17 14.53 12.83 13.83 13.53C12.16 14.52 9.55 14.83 8.8 15.38C6.34 16.88 7.86 19.52 8.08 20.93C7.59 21.76 7.13 22.6 6.69 23.47C6.1 24.19 5.22 24.79 4.45 25.36C3.61 25.99 2.81 26.53 2.49 26.91C1.36 28.12 1.78 29.44 2.36 30.46C2.79 31.21 3.3 31.83 3.58 32.35C3.37 33.31 3.24 34.28 3.11 35.26C2.32 37.08 0.67 38.96 0.25 39.85C-0.67 42.53 2.02 43.69 3.08 44.67C3.21 45.67 3.35 46.68 3.55 47.67C3.46 49.59 2.3 51.91 2.36 52.82C2.26 55.7 5.3 55.87 6.61 56.45C7.03 57.32 7.49 58.17 7.98 59C8.26 59.89 8.29 60.95 8.34 61.91C8.41 62.96 8.42 63.93 8.56 64.4C8.97 66.01 10.3 66.37 11.46 66.46C12.33 66.51 13.13 66.41 13.72 66.47C14.41 67.16 15.14 67.8 15.88 68.44C17 70.05 17.61 72.58 18.17 73.36C19.14 74.65 20.44 74.68 21.57 74.39C22.41 74.14 23.17 73.75 23.75 73.6C24.62 74.03 25.51 74.43 26.42 74.8C27.18 75.32 27.87 76.1 28.48 76.86C29.17 77.68 29.78 78.39 30.19 78.68C30.84 79.15 31.49 79.3 32.09 79.25C32.69 79.16 33.25 78.87 33.74 78.52C34.45 78.04 35.03 77.44 35.52 77.13C36.49 77.25 37.46 77.31 38.45 77.37C40.33 77.99 42.34 79.54 43.27 79.83C44.84 80.38 45.87 79.43 46.58 78.53C47.09 77.85 47.45 77.13 47.82 76.66C48.8 76.46 49.76 76.19 50.71 75.92C52.67 75.88 55.08 76.73 56.03 76.7C57.64 76.58 58.38 75.5 58.75 74.4C59 73.55 59.08 72.71 59.28 72.14C60.09 71.66 60.89 71.16 61.66 70.62C62.53 70.23 63.58 70.06 64.59 69.97C65.64 69.83 66.58 69.71 67.05 69.53C68.6 68.97 68.91 67.69 68.86 66.47C68.84 65.61 68.66 64.79 68.68 64.21C69.28 63.49 69.85 62.74 70.41 61.97C70.74 61.69 71.11 61.42 71.53 61.19C71.98 60.9 72.47 60.64 72.95 60.41C73.91 59.93 74.81 59.54 75.19 59.23C77.3 57.31 75.45 54.99 74.98 53.63C75.33 52.72 75.68 51.81 75.96 50.87C76.92 49.18 79.11 47.66 79.49 46.81C80.95 44.34 78.37 42.74 77.49 41.61ZM40.17 73.32C21.82 73.32 6.89 58.39 6.89 40.04C6.89 21.7 21.82 6.77 40.17 6.77C58.51 6.77 73.44 21.7 73.44 40.04C73.44 58.39 58.52 73.32 40.17 73.32Z" fill="#F6F3E3" fill-opacity="1.000000" fill-rule="nonzero"/>
		<path id="Vector" d="M40.4 8.57C23.07 8.57 8.97 22.67 8.97 40C8.97 57.32 23.07 71.42 40.4 71.42C57.72 71.42 71.82 57.32 71.82 40C71.82 22.67 57.72 8.57 40.4 8.57ZM40.4 69.41C24.18 69.41 10.98 56.22 10.98 40C10.98 23.78 24.18 10.58 40.4 10.58C56.61 10.58 69.81 23.78 69.81 40C69.81 56.21 56.61 69.41 40.4 69.41Z" fill="#F6F3E3" fill-opacity="1.000000" fill-rule="nonzero"/>
		<path id="Vector" d="M37.38 58.14L46.88 58.14L48.33 24.77L35.94 24.77L37.38 58.14Z" fill="#F6F3E3" fill-opacity="1.000000" fill-rule="nonzero"/>
		<path id="Vector" d="M39.55 17L44.44 17L44.44 23.96L39.55 23.96L39.55 17Z" fill="#F6F3E3" fill-opacity="1.000000" fill-rule="evenodd"/>
		<path id="Vector" d="M23.84 57.98L31.59 57.98L32.77 30.74L22.66 30.74L23.84 57.98Z" fill="#F6F3E3" fill-opacity="1.000000" fill-rule="nonzero"/>
		<path id="Vector" d="M25.61 24.39L29.59 24.39L29.59 30.08L25.61 30.08L25.61 24.39Z" fill="#F6F3E3" fill-opacity="1.000000" fill-rule="evenodd"/>
		<path id="Vector" d="M52.05 58.25L59.8 58.25L60.98 31.01L50.87 31.01L52.05 58.25Z" fill="#F6F3E3" fill-opacity="1.000000" fill-rule="nonzero"/>
		<path id="Vector" d="M53.82 24.66L57.81 24.66L57.81 30.35L53.82 30.35L53.82 24.66Z" fill="#F6F3E3" fill-opacity="1.000000" fill-rule="evenodd"/>
	</g>
</svg>
