<svg width="80.000000" height="80.000000" viewBox="0 0 80 80" fill="none" xmlns="http://www.w3.org/2000/svg" xmlns:xlink="http://www.w3.org/1999/xlink">
	<desc>
			Created with Pixso.
	</desc>
	<defs>
		<clipPath id="clip16_67">
			<rect id="icon 2" width="80.000000" height="80.000000" fill="white" fill-opacity="0"/>
		</clipPath>
	</defs>
	<rect id="icon 2" width="80.000000" height="80.000000" fill="#FFFFFF" fill-opacity="0"/>
	<g clip-path="url(#clip16_67)">
		<path id="Vector" d="M77.49 41.62C77.51 41.09 77.57 40.58 77.57 40.05C77.57 39.58 77.52 39.12 77.5 38.65C77.69 37.75 78.14 36.82 78.57 35.97C79 35.02 79.45 34.16 79.55 33.68C79.95 32.07 79.01 31.11 77.99 30.48C77.26 30.03 76.48 29.73 76 29.4C75.73 28.48 75.4 27.58 75.06 26.7C74.97 25.74 75.06 24.69 75.14 23.73C75.27 22.67 75.43 21.71 75.38 21.21C74.92 18.4 71.95 18.68 70.56 18.33C70 17.56 69.44 16.79 68.83 16.06C67.91 14.33 67.83 11.63 67.33 10.83C66.08 8.23 63.29 9.56 61.88 9.65C61.1 9.09 60.3 8.57 59.48 8.07C58.1 6.63 57.06 4.28 56.38 3.57C55.25 2.37 53.9 2.68 52.85 3.14C52.07 3.48 51.4 3.97 50.85 4.22C49.89 3.93 48.91 3.67 47.92 3.46C46.19 2.59 44.51 0.65 43.65 0.28C42.19 -0.38 41.03 0.21 40.18 1C39.56 1.62 39.09 2.31 38.65 2.72C37.66 2.76 36.67 2.82 35.71 2.93C33.76 2.71 31.5 1.34 30.56 1.32C28.95 1.12 28.03 2.03 27.51 3.14C27.12 3.92 26.89 4.72 26.6 5.23C25.7 5.59 24.82 5.98 23.96 6.4C22 6.76 19.46 6.34 18.5 6.53C16.88 6.82 16.4 8.12 16.21 9.26C16.07 10.09 16.12 10.93 16.02 11.53C15.27 12.17 14.53 12.83 13.82 13.53C12.16 14.53 9.54 14.83 8.8 15.38C6.34 16.88 7.86 19.52 8.08 20.93C7.59 21.76 7.13 22.6 6.69 23.47C6.1 24.19 5.22 24.79 4.45 25.36C3.61 25.99 2.81 26.53 2.49 26.91C1.36 28.13 1.78 29.44 2.35 30.46C2.79 31.21 3.3 31.83 3.57 32.35C3.37 33.31 3.23 34.28 3.1 35.27C2.31 37.08 0.66 38.96 0.24 39.86C-0.68 42.53 2.01 43.7 3.08 44.67C3.2 45.67 3.34 46.68 3.55 47.67C3.46 49.59 2.29 51.91 2.35 52.82C2.26 55.7 5.3 55.87 6.61 56.45C7.03 57.32 7.49 58.17 7.98 59C8.26 59.89 8.29 60.96 8.34 61.91C8.41 62.96 8.42 63.93 8.56 64.4C8.97 66.01 10.3 66.37 11.46 66.46C12.33 66.51 13.13 66.41 13.72 66.47C14.41 67.16 15.14 67.81 15.88 68.43C17 70.05 17.61 72.58 18.17 73.36C19.14 74.65 20.44 74.68 21.57 74.39C22.42 74.14 23.17 73.75 23.75 73.6C24.62 74.03 25.51 74.44 26.42 74.8C27.18 75.32 27.87 76.1 28.48 76.86C29.17 77.67 29.79 78.39 30.19 78.68C30.85 79.15 31.5 79.3 32.09 79.25C32.7 79.16 33.25 78.87 33.74 78.52C34.45 78.04 35.03 77.44 35.53 77.13C36.49 77.25 37.47 77.32 38.45 77.36C40.33 77.99 42.35 79.54 43.27 79.83C44.84 80.38 45.87 79.43 46.58 78.53C47.1 77.85 47.46 77.12 47.82 76.66C48.8 76.45 49.76 76.19 50.71 75.92C52.67 75.88 55.08 76.73 56.03 76.7C57.64 76.58 58.38 75.5 58.75 74.4C59 73.56 59.09 72.71 59.28 72.14C60.09 71.66 60.89 71.16 61.66 70.62C62.53 70.23 63.59 70.06 64.59 69.97C65.65 69.83 66.59 69.71 67.05 69.53C68.6 68.97 68.91 67.69 68.86 66.47C68.84 65.61 68.66 64.79 68.68 64.21C69.29 63.49 69.86 62.74 70.41 61.97C70.75 61.69 71.11 61.42 71.53 61.19C71.99 60.9 72.48 60.64 72.96 60.4C73.91 59.93 74.82 59.54 75.2 59.23C77.3 57.31 75.46 54.99 74.99 53.63C75.34 52.72 75.68 51.81 75.97 50.87C76.92 49.18 79.11 47.66 79.5 46.81C80.95 44.34 78.37 42.74 77.49 41.62ZM40.17 73.32C21.82 73.32 6.89 58.4 6.89 40.05C6.89 21.7 21.82 6.77 40.17 6.77C58.52 6.77 73.44 21.7 73.44 40.05C73.44 58.4 58.52 73.32 40.17 73.32Z" fill="#F6F3E3" fill-opacity="1.000000" fill-rule="nonzero"/>
		<path id="Vector" d="M50.58 28.19C49.68 23.61 41.82 20.89 39.99 24.33C38.17 20.89 30.31 23.61 29.41 28.19C28.23 32.98 21.97 34.3 18.5 31.8C18.5 37.22 24.34 37.28 27.95 37.63C36.5 37.26 39.2 33.32 39.99 31.52C40.79 33.32 43.49 37.26 52.04 37.63C55.65 37.28 61.48 37.22 61.48 31.8C58.01 34.3 51.76 32.98 50.58 28.19Z" fill="#F6F3E3" fill-opacity="1.000000" fill-rule="nonzero"/>
		<path id="Vector" d="M39.87 33.46C35.14 39.93 25.64 38.47 25.64 38.47C25.64 38.47 25.19 47.32 27.98 49.64C27.8 59.95 38.96 62.21 41.76 62.39C44.56 62.56 49.9 59.21 48.77 57.15C51.06 54.91 51.8 52.15 51.57 49.46C54.01 49.11 52.65 38.7 52.65 38.7C52.65 38.7 42.92 39.05 39.87 33.46Z" fill="#F6F3E3" fill-opacity="1.000000" fill-rule="nonzero"/>
		<path id="Vector" d="M40.26 10.63C23.87 10.63 10.53 23.97 10.53 40.36C10.53 56.76 23.87 70.1 40.26 70.1C56.66 70.1 70 56.76 70 40.36C70 23.97 56.66 10.63 40.26 10.63ZM40.26 68.96C24.5 68.96 11.67 56.13 11.67 40.36C11.67 24.6 24.5 11.77 40.26 11.77C56.03 11.77 68.86 24.6 68.86 40.36C68.86 56.13 56.03 68.96 40.26 68.96Z" fill="#F6F3E3" fill-opacity="1.000000" fill-rule="nonzero"/>
	</g>
</svg>
