<svg width="80.000000" height="80.000000" viewBox="0 0 80 80" fill="none" xmlns="http://www.w3.org/2000/svg" xmlns:xlink="http://www.w3.org/1999/xlink">
	<desc>
			Created with Pixso.
	</desc>
	<defs>
		<clipPath id="clip16_75">
			<rect id="icon 1" width="80.000000" height="80.000000" fill="white" fill-opacity="0"/>
		</clipPath>
	</defs>
	<rect id="icon 1" width="80.000000" height="80.000000" fill="#FFFFFF" fill-opacity="0"/>
	<g clip-path="url(#clip16_75)">
		<path id="Vector" d="M49.59 18.79L48.71 19.58C48.71 19.58 44.19 28.27 40.88 34.74C41.61 36.2 42.26 37.52 42.77 38.57L49.59 18.79Z" fill="#F6F3E3" fill-opacity="1.000000" fill-rule="nonzero"/>
		<path id="Vector" d="M37.44 41.59C34.65 46.99 28.77 49.26 28.35 49.42C26.38 49.87 24.67 51.48 24.01 53.67C23.54 55.18 23.63 56.76 24.24 58.13C24.87 59.54 25.99 60.55 27.38 60.97C27.82 61.11 28.29 61.18 28.76 61.19C31.2 61.21 33.47 59.4 34.26 56.8C34.26 56.79 34.26 56.78 34.27 56.77C34.28 56.8 34.28 56.81 34.28 56.81L39.68 41.1L39.69 41.09L38.07 40.28C37.71 41 37.48 41.47 37.44 41.59ZM32.6 56.3C32.03 58.17 30.46 59.46 28.78 59.45C28.47 59.45 28.17 59.4 27.89 59.31C26.98 59.04 26.26 58.36 25.83 57.42C25.39 56.43 25.33 55.28 25.67 54.17C26.25 52.3 27.82 51 29.5 51.01C29.8 51.02 30.1 51.07 30.39 51.15C31.28 51.43 32.02 52.1 32.44 53.05C32.88 54.03 32.94 55.18 32.6 56.3Z" fill="#F6F3E3" fill-opacity="1.000000" fill-rule="nonzero"/>
		<path id="Vector" d="M52.19 49.65C51.56 49.39 46.04 46.97 43.46 41.61C43.17 40.7 32.4 19.38 32.4 19.38L31.54 18.65L38.43 39.63L41.23 41.05L46.14 56.59C46.16 56.7 46.19 56.8 46.21 56.9C46.94 59.56 49.18 61.42 51.65 61.44C52.1 61.44 52.54 61.39 52.98 61.27C54.38 60.88 55.52 59.9 56.19 58.51C56.84 57.16 56.97 55.58 56.55 54.05C55.93 51.8 54.21 50.12 52.19 49.65ZM40.03 39.36C39.53 39.36 39.12 38.95 39.12 38.44C39.13 37.93 39.54 37.53 40.05 37.53C40.55 37.54 40.96 37.95 40.96 38.46C40.95 38.96 40.54 39.37 40.03 39.36ZM54.63 57.75C54.17 58.69 53.43 59.34 52.52 59.59C52.24 59.66 51.95 59.7 51.66 59.7C49.96 59.68 48.41 58.35 47.88 56.44C47.58 55.32 47.66 54.17 48.13 53.19C48.59 52.26 49.33 51.61 50.25 51.36C50.52 51.29 50.81 51.25 51.1 51.25C52.8 51.27 54.35 52.6 54.88 54.51C55.18 55.63 55.09 56.78 54.63 57.75Z" fill="#F6F3E3" fill-opacity="1.000000" fill-rule="nonzero"/>
		<path id="Vector" d="M77.49 41.61C77.52 41.09 77.57 40.58 77.57 40.05C77.57 39.58 77.52 39.12 77.5 38.65C77.69 37.75 78.14 36.82 78.58 35.97C79.01 35.01 79.46 34.16 79.56 33.67C79.95 32.07 79.02 31.11 77.99 30.48C77.26 30.03 76.49 29.73 76.01 29.4C75.74 28.48 75.41 27.58 75.07 26.7C74.97 25.74 75.07 24.69 75.15 23.73C75.27 22.67 75.44 21.7 75.39 21.21C74.93 18.4 71.96 18.68 70.57 18.34C70.01 17.56 69.45 16.79 68.84 16.06C67.92 14.33 67.84 11.63 67.34 10.83C66.08 8.23 63.3 9.56 61.89 9.65C61.1 9.09 60.3 8.57 59.48 8.08C58.11 6.64 57.07 4.28 56.39 3.57C55.26 2.38 53.91 2.68 52.86 3.14C52.08 3.48 51.41 3.97 50.86 4.22C49.9 3.93 48.92 3.68 47.93 3.47C46.2 2.59 44.52 0.65 43.66 0.29C42.2 -0.38 41.04 0.21 40.19 1C39.57 1.62 39.09 2.32 38.66 2.72C37.67 2.76 36.68 2.82 35.71 2.94C33.77 2.72 31.51 1.34 30.57 1.32C28.95 1.12 28.04 2.02 27.51 3.14C27.13 3.91 26.9 4.72 26.61 5.23C25.71 5.59 24.83 5.98 23.96 6.4C22.01 6.76 19.46 6.34 18.5 6.53C16.88 6.82 16.41 8.12 16.22 9.25C16.07 10.09 16.13 10.94 16.03 11.53C15.27 12.17 14.53 12.83 13.82 13.53C12.16 14.53 9.55 14.83 8.8 15.38C6.34 16.88 7.87 19.52 8.08 20.93C7.59 21.75 7.13 22.6 6.69 23.47C6.1 24.19 5.22 24.79 4.46 25.36C3.61 25.99 2.81 26.53 2.49 26.91C1.36 28.12 1.79 29.44 2.36 30.46C2.79 31.21 3.3 31.83 3.58 32.35C3.38 33.3 3.24 34.28 3.11 35.26C2.32 37.08 0.66 38.96 0.24 39.85C-0.67 42.53 2.02 43.69 3.09 44.66C3.21 45.67 3.35 46.68 3.55 47.66C3.46 49.59 2.3 51.9 2.36 52.82C2.27 55.7 5.3 55.87 6.61 56.45C7.03 57.32 7.49 58.17 7.98 59C8.26 59.89 8.29 60.95 8.34 61.91C8.41 62.96 8.42 63.93 8.57 64.4C8.97 66.01 10.3 66.37 11.47 66.46C12.33 66.51 13.13 66.41 13.72 66.47C14.41 67.15 15.14 67.8 15.88 68.43C17 70.05 17.6 72.57 18.16 73.36C19.14 74.65 20.44 74.67 21.57 74.38C22.41 74.13 23.17 73.74 23.74 73.6C24.62 74.03 25.5 74.43 26.41 74.8C27.18 75.32 27.86 76.1 28.47 76.86C29.16 77.67 29.78 78.39 30.18 78.68C30.84 79.15 31.49 79.3 32.08 79.25C32.69 79.16 33.24 78.87 33.73 78.52C34.44 78.04 35.02 77.44 35.52 77.13C36.48 77.25 37.45 77.31 38.44 77.36C40.32 77.99 42.34 79.54 43.26 79.83C44.83 80.38 45.86 79.43 46.57 78.52C47.08 77.85 47.45 77.12 47.81 76.66C48.79 76.45 49.74 76.19 50.7 75.91C52.65 75.87 55.06 76.72 56.02 76.69C57.63 76.58 58.37 75.5 58.74 74.4C58.99 73.55 59.08 72.7 59.27 72.14C60.08 71.66 60.88 71.15 61.65 70.61C62.52 70.23 63.58 70.06 64.58 69.97C65.63 69.82 66.57 69.71 67.03 69.53C68.58 68.97 68.9 67.68 68.85 66.47C68.83 65.6 68.65 64.79 68.67 64.2C69.28 63.49 69.84 62.73 70.4 61.97C70.74 61.68 71.1 61.41 71.52 61.19C71.97 60.89 72.46 60.63 72.94 60.4C73.9 59.93 74.8 59.54 75.18 59.23C77.29 57.3 75.44 54.98 74.97 53.63C75.33 52.72 75.66 51.8 75.95 50.87C76.91 49.17 79.1 47.65 79.48 46.8C80.96 44.34 78.37 42.74 77.49 41.61ZM40.17 73.32C21.82 73.32 6.89 58.4 6.89 40.05C6.89 21.7 21.82 6.77 40.17 6.77C58.52 6.77 73.45 21.7 73.45 40.05C73.45 58.4 58.52 73.32 40.17 73.32Z" fill="#F6F3E3" fill-opacity="1.000000" fill-rule="nonzero"/>
		<path id="Vector" d="M40.4 8.57C23.07 8.57 8.97 22.67 8.97 40C8.97 57.32 23.07 71.42 40.4 71.42C57.73 71.42 71.82 57.32 71.82 40C71.82 22.67 57.73 8.57 40.4 8.57ZM40.4 69.41C24.18 69.41 10.98 56.21 10.98 40C10.98 23.78 24.18 10.58 40.4 10.58C56.62 10.58 69.81 23.78 69.81 40C69.81 56.21 56.61 69.41 40.4 69.41Z" fill="#F6F3E3" fill-opacity="1.000000" fill-rule="nonzero"/>
	</g>
</svg>
